<?xml version="1.0" encoding="UTF-8" standalone="no"?>
<!DOCTYPE svg PUBLIC "-//W3C//DTD SVG 1.1//EN"
 "http://www.w3.org/Graphics/SVG/1.1/DTD/svg11.dtd">
<!-- Generated by graphviz version 2.47.0 (20210316.0004)
 -->
<!-- Title: dependencies Pages: 1 -->
<svg width="504pt" height="211pt"
 viewBox="0.00 0.00 504.00 211.00" xmlns="http://www.w3.org/2000/svg" xmlns:xlink="http://www.w3.org/1999/xlink">
<g id="graph0" class="graph" transform="scale(1 1) rotate(0) translate(4 207)">
<title>dependencies</title>
<polygon fill="white" stroke="transparent" points="-4,4 -4,-207 500,-207 500,4 -4,4"/>
<text text-anchor="start" x="227.01" y="-42.4" font-family="sans-serif" font-weight="bold" font-size="14.00">Legend</text>
<polygon fill="#ffffb3" stroke="transparent" points="14,-10 14,-30 34,-30 34,-10 14,-10"/>
<text text-anchor="start" x="37.63" y="-15.4" font-family="sans-serif" font-size="14.00"> &#160;Declarations</text>
<polygon fill="#8dd3c7" stroke="transparent" points="127,-10 127,-30 147,-30 147,-10 127,-10"/>
<text text-anchor="start" x="150.73" y="-15.4" font-family="sans-serif" font-size="14.00"> &#160;Module</text>
<polygon fill="#80b1d3" stroke="transparent" points="213,-10 213,-30 233,-30 233,-10 213,-10"/>
<text text-anchor="start" x="236.78" y="-15.4" font-family="sans-serif" font-size="14.00"> &#160;Bootstrap</text>
<polygon fill="#fdb462" stroke="transparent" points="310,-10 310,-30 330,-30 330,-10 310,-10"/>
<text text-anchor="start" x="333.67" y="-15.4" font-family="sans-serif" font-size="14.00"> &#160;Providers</text>
<polygon fill="#fb8072" stroke="transparent" points="406,-10 406,-30 426,-30 426,-10 406,-10"/>
<text text-anchor="start" x="429.73" y="-15.4" font-family="sans-serif" font-size="14.00"> &#160;Exports</text>
<g id="clust1" class="cluster">
<title>cluster_ServicesModule</title>
<polygon fill="none" stroke="black" stroke-dasharray="1,5" points="65.5,-70 65.5,-195 430.5,-195 430.5,-70 65.5,-70"/>
</g>
<g id="clust6" class="cluster">
<title>cluster_ServicesModule_providers</title>
<polygon fill="none" stroke="black" points="73.5,-78 73.5,-130 422.5,-130 422.5,-78 73.5,-78"/>
</g>
<!-- FuncionesService -->
<g id="node1" class="node">
<title>FuncionesService</title>
<ellipse fill="#fdb462" stroke="black" cx="334.5" cy="-104" rx="79.87" ry="18"/>
<text text-anchor="middle" x="334.5" y="-99.8" font-family="Times,serif" font-size="14.00">FuncionesService</text>
</g>
<!-- ServicesModule -->
<g id="node3" class="node">
<title>ServicesModule</title>
<polygon fill="#8dd3c7" stroke="black" points="299.97,-187 296.97,-191 275.97,-191 272.97,-187 193.03,-187 193.03,-151 299.97,-151 299.97,-187"/>
<text text-anchor="middle" x="246.5" y="-164.8" font-family="Times,serif" font-size="14.00">ServicesModule</text>
</g>
<!-- FuncionesService&#45;&gt;ServicesModule -->
<g id="edge1" class="edge">
<title>FuncionesService&#45;&gt;ServicesModule</title>
<path fill="none" stroke="black" d="M277.4,-116.84C277.4,-116.84 277.4,-140.52 277.4,-140.52"/>
<polygon fill="black" stroke="black" points="273.9,-140.52 277.4,-150.52 280.9,-140.52 273.9,-140.52"/>
</g>
<!-- HogwartsService -->
<g id="node2" class="node">
<title>HogwartsService</title>
<ellipse fill="#fdb462" stroke="black" cx="159.5" cy="-104" rx="77.56" ry="18"/>
<text text-anchor="middle" x="159.5" y="-99.8" font-family="Times,serif" font-size="14.00">HogwartsService</text>
</g>
<!-- HogwartsService&#45;&gt;ServicesModule -->
<g id="edge2" class="edge">
<title>HogwartsService&#45;&gt;ServicesModule</title>
<path fill="none" stroke="black" d="M215.02,-116.84C215.02,-116.84 215.02,-140.52 215.02,-140.52"/>
<polygon fill="black" stroke="black" points="211.52,-140.52 215.02,-150.52 218.52,-140.52 211.52,-140.52"/>
</g>
</g>
</svg>
