<?xml version="1.0" encoding="UTF-8" standalone="no"?>
<!DOCTYPE svg PUBLIC "-//W3C//DTD SVG 1.1//EN"
 "http://www.w3.org/Graphics/SVG/1.1/DTD/svg11.dtd">
<!-- Generated by graphviz version 2.47.0 (20210316.0004)
 -->
<!-- Title: dependencies Pages: 1 -->
<svg width="504pt" height="211pt"
 viewBox="0.00 0.00 504.00 211.00" xmlns="http://www.w3.org/2000/svg" xmlns:xlink="http://www.w3.org/1999/xlink">
<g id="graph0" class="graph" transform="scale(1 1) rotate(0) translate(4 207)">
<title>dependencies</title>
<polygon fill="white" stroke="transparent" points="-4,4 -4,-207 500,-207 500,4 -4,4"/>
<text text-anchor="start" x="227.01" y="-42.4" font-family="sans-serif" font-weight="bold" font-size="14.00">Legend</text>
<polygon fill="#ffffb3" stroke="transparent" points="14,-10 14,-30 34,-30 34,-10 14,-10"/>
<text text-anchor="start" x="37.63" y="-15.4" font-family="sans-serif" font-size="14.00"> &#160;Declarations</text>
<polygon fill="#8dd3c7" stroke="transparent" points="127,-10 127,-30 147,-30 147,-10 127,-10"/>
<text text-anchor="start" x="150.73" y="-15.4" font-family="sans-serif" font-size="14.00"> &#160;Module</text>
<polygon fill="#80b1d3" stroke="transparent" points="213,-10 213,-30 233,-30 233,-10 213,-10"/>
<text text-anchor="start" x="236.78" y="-15.4" font-family="sans-serif" font-size="14.00"> &#160;Bootstrap</text>
<polygon fill="#fdb462" stroke="transparent" points="310,-10 310,-30 330,-30 330,-10 310,-10"/>
<text text-anchor="start" x="333.67" y="-15.4" font-family="sans-serif" font-size="14.00"> &#160;Providers</text>
<polygon fill="#fb8072" stroke="transparent" points="406,-10 406,-30 426,-30 426,-10 406,-10"/>
<text text-anchor="start" x="429.73" y="-15.4" font-family="sans-serif" font-size="14.00"> &#160;Exports</text>
<g id="clust1" class="cluster">
<title>cluster_HowartsModule</title>
<polygon fill="none" stroke="black" stroke-dasharray="1,5" points="9.5,-70 9.5,-195 486.5,-195 486.5,-70 9.5,-70"/>
</g>
<g id="clust2" class="cluster">
<title>cluster_HowartsModule_declarations</title>
<polygon fill="none" stroke="black" points="17.5,-78 17.5,-130 478.5,-130 478.5,-78 17.5,-78"/>
</g>
<!-- Docentes -->
<g id="node1" class="node">
<title>Docentes</title>
<polygon fill="#ffffb3" stroke="black" points="470.59,-122 402.41,-122 402.41,-86 470.59,-86 470.59,-122"/>
<text text-anchor="middle" x="436.5" y="-99.8" font-family="Times,serif" font-size="14.00">Docentes</text>
</g>
<!-- HowartsModule -->
<g id="node6" class="node">
<title>HowartsModule</title>
<polygon fill="#8dd3c7" stroke="black" points="300.97,-187 297.97,-191 276.97,-191 273.97,-187 194.03,-187 194.03,-151 300.97,-151 300.97,-187"/>
<text text-anchor="middle" x="247.5" y="-164.8" font-family="Times,serif" font-size="14.00">HowartsModule</text>
</g>
<!-- Docentes&#45;&gt;HowartsModule -->
<g id="edge1" class="edge">
<title>Docentes&#45;&gt;HowartsModule</title>
<path fill="none" stroke="black" d="M436.5,-122.11C436.5,-141.34 436.5,-169 436.5,-169 436.5,-169 311.15,-169 311.15,-169"/>
<polygon fill="black" stroke="black" points="311.15,-165.5 301.15,-169 311.15,-172.5 311.15,-165.5"/>
</g>
<!-- Estudiantes -->
<g id="node2" class="node">
<title>Estudiantes</title>
<polygon fill="#ffffb3" stroke="black" points="384.54,-122 304.46,-122 304.46,-86 384.54,-86 384.54,-122"/>
<text text-anchor="middle" x="344.5" y="-99.8" font-family="Times,serif" font-size="14.00">Estudiantes</text>
</g>
<!-- Estudiantes&#45;&gt;HowartsModule -->
<g id="edge2" class="edge">
<title>Estudiantes&#45;&gt;HowartsModule</title>
<path fill="none" stroke="black" d="M304.24,-104C297.91,-104 293.41,-104 293.41,-104 293.41,-104 293.41,-140.89 293.41,-140.89"/>
<polygon fill="black" stroke="black" points="289.91,-140.89 293.41,-150.89 296.91,-140.89 289.91,-140.89"/>
</g>
<!-- ModalAdd -->
<g id="node3" class="node">
<title>ModalAdd</title>
<polygon fill="#ffffb3" stroke="black" points="285.66,-122 209.34,-122 209.34,-86 285.66,-86 285.66,-122"/>
<text text-anchor="middle" x="247.5" y="-99.8" font-family="Times,serif" font-size="14.00">ModalAdd</text>
</g>
<!-- ModalAdd&#45;&gt;HowartsModule -->
<g id="edge3" class="edge">
<title>ModalAdd&#45;&gt;HowartsModule</title>
<path fill="none" stroke="black" d="M247.5,-122.11C247.5,-122.11 247.5,-140.99 247.5,-140.99"/>
<polygon fill="black" stroke="black" points="244,-140.99 247.5,-150.99 251,-140.99 244,-140.99"/>
</g>
<!-- Personajes -->
<g id="node4" class="node">
<title>Personajes</title>
<polygon fill="#ffffb3" stroke="black" points="191.37,-122 115.63,-122 115.63,-86 191.37,-86 191.37,-122"/>
<text text-anchor="middle" x="153.5" y="-99.8" font-family="Times,serif" font-size="14.00">Personajes</text>
</g>
<!-- Personajes&#45;&gt;HowartsModule -->
<g id="edge4" class="edge">
<title>Personajes&#45;&gt;HowartsModule</title>
<path fill="none" stroke="black" d="M191.39,-104C197.35,-104 201.59,-104 201.59,-104 201.59,-104 201.59,-140.89 201.59,-140.89"/>
<polygon fill="black" stroke="black" points="198.09,-140.89 201.59,-150.89 205.09,-140.89 198.09,-140.89"/>
</g>
<!-- TablaInfo -->
<g id="node5" class="node">
<title>TablaInfo</title>
<polygon fill="#ffffb3" stroke="black" points="97.19,-122 25.81,-122 25.81,-86 97.19,-86 97.19,-122"/>
<text text-anchor="middle" x="61.5" y="-99.8" font-family="Times,serif" font-size="14.00">TablaInfo</text>
</g>
<!-- TablaInfo&#45;&gt;HowartsModule -->
<g id="edge5" class="edge">
<title>TablaInfo&#45;&gt;HowartsModule</title>
<path fill="none" stroke="black" d="M61.5,-122.11C61.5,-141.34 61.5,-169 61.5,-169 61.5,-169 183.7,-169 183.7,-169"/>
<polygon fill="black" stroke="black" points="183.7,-172.5 193.7,-169 183.7,-165.5 183.7,-172.5"/>
</g>
</g>
</svg>
