<?xml version="1.0" encoding="UTF-8" standalone="no"?>
<!DOCTYPE svg PUBLIC "-//W3C//DTD SVG 1.1//EN"
 "http://www.w3.org/Graphics/SVG/1.1/DTD/svg11.dtd">
<!-- Generated by graphviz version 2.47.0 (20210316.0004)
 -->
<!-- Title: dependencies Pages: 1 -->
<svg width="601pt" height="284pt"
 viewBox="0.00 0.00 601.00 284.00" xmlns="http://www.w3.org/2000/svg" xmlns:xlink="http://www.w3.org/1999/xlink">
<g id="graph0" class="graph" transform="scale(1 1) rotate(0) translate(4 280)">
<title>dependencies</title>
<polygon fill="white" stroke="transparent" points="-4,4 -4,-280 597,-280 597,4 -4,4"/>
<text text-anchor="start" x="275.51" y="-42.4" font-family="sans-serif" font-weight="bold" font-size="14.00">Legend</text>
<polygon fill="#ffffb3" stroke="transparent" points="62.5,-10 62.5,-30 82.5,-30 82.5,-10 62.5,-10"/>
<text text-anchor="start" x="86.13" y="-15.4" font-family="sans-serif" font-size="14.00"> &#160;Declarations</text>
<polygon fill="#8dd3c7" stroke="transparent" points="175.5,-10 175.5,-30 195.5,-30 195.5,-10 175.5,-10"/>
<text text-anchor="start" x="199.23" y="-15.4" font-family="sans-serif" font-size="14.00"> &#160;Module</text>
<polygon fill="#80b1d3" stroke="transparent" points="261.5,-10 261.5,-30 281.5,-30 281.5,-10 261.5,-10"/>
<text text-anchor="start" x="285.28" y="-15.4" font-family="sans-serif" font-size="14.00"> &#160;Bootstrap</text>
<polygon fill="#fdb462" stroke="transparent" points="358.5,-10 358.5,-30 378.5,-30 378.5,-10 358.5,-10"/>
<text text-anchor="start" x="382.17" y="-15.4" font-family="sans-serif" font-size="14.00"> &#160;Providers</text>
<polygon fill="#fb8072" stroke="transparent" points="454.5,-10 454.5,-30 474.5,-30 474.5,-10 454.5,-10"/>
<text text-anchor="start" x="478.23" y="-15.4" font-family="sans-serif" font-size="14.00"> &#160;Exports</text>
<g id="clust1" class="cluster">
<title>cluster_AppModule</title>
<polygon fill="none" stroke="black" stroke-dasharray="1,5" points="8,-70 8,-268 585,-268 585,-70 8,-70"/>
</g>
<g id="clust2" class="cluster">
<title>cluster_AppModule_declarations</title>
<polygon fill="none" stroke="black" points="293,-78 293,-130 577,-130 577,-78 293,-78"/>
</g>
<g id="clust7" class="cluster">
<title>cluster_AppModule_bootstrap</title>
<polygon fill="none" stroke="black" points="231,-208 231,-260 355,-260 355,-208 231,-208"/>
</g>
<g id="clust5" class="cluster">
<title>cluster_AppModule_imports</title>
<polygon fill="none" stroke="black" points="16,-78 16,-130 285,-130 285,-78 16,-78"/>
</g>
<!-- AppComponent -->
<g id="node1" class="node">
<title>AppComponent</title>
<polygon fill="#ffffb3" stroke="black" points="568.94,-122 463.06,-122 463.06,-86 568.94,-86 568.94,-122"/>
<text text-anchor="middle" x="516" y="-99.8" font-family="Times,serif" font-size="14.00">AppComponent</text>
</g>
<!-- AppModule -->
<g id="node3" class="node">
<title>AppModule</title>
<polygon fill="#8dd3c7" stroke="black" points="334.66,-187 331.66,-191 310.66,-191 307.66,-187 251.34,-187 251.34,-151 334.66,-151 334.66,-187"/>
<text text-anchor="middle" x="293" y="-164.8" font-family="Times,serif" font-size="14.00">AppModule</text>
</g>
<!-- AppComponent&#45;&gt;AppModule -->
<g id="edge1" class="edge">
<title>AppComponent&#45;&gt;AppModule</title>
<path fill="none" stroke="black" d="M516,-122.11C516,-141.34 516,-169 516,-169 516,-169 344.68,-169 344.68,-169"/>
<polygon fill="black" stroke="black" points="344.68,-165.5 334.68,-169 344.68,-172.5 344.68,-165.5"/>
</g>
<!-- SidebarnavComponent -->
<g id="node2" class="node">
<title>SidebarnavComponent</title>
<polygon fill="#ffffb3" stroke="black" points="445.31,-122 300.69,-122 300.69,-86 445.31,-86 445.31,-122"/>
<text text-anchor="middle" x="373" y="-99.8" font-family="Times,serif" font-size="14.00">SidebarnavComponent</text>
</g>
<!-- SidebarnavComponent&#45;&gt;AppModule -->
<g id="edge2" class="edge">
<title>SidebarnavComponent&#45;&gt;AppModule</title>
<path fill="none" stroke="black" d="M317.84,-122.11C317.84,-122.11 317.84,-140.99 317.84,-140.99"/>
<polygon fill="black" stroke="black" points="314.34,-140.99 317.84,-150.99 321.34,-140.99 314.34,-140.99"/>
</g>
<!-- AppComponent  -->
<g id="node6" class="node">
<title>AppComponent </title>
<polygon fill="#80b1d3" stroke="black" points="347.44,-252 238.56,-252 238.56,-216 347.44,-216 347.44,-252"/>
<text text-anchor="middle" x="293" y="-229.8" font-family="Times,serif" font-size="14.00">AppComponent </text>
</g>
<!-- AppModule&#45;&gt;AppComponent  -->
<g id="edge5" class="edge">
<title>AppModule&#45;&gt;AppComponent </title>
<path fill="none" stroke="black" stroke-dasharray="1,5" d="M293,-187.11C293,-187.11 293,-205.99 293,-205.99"/>
<polygon fill="black" stroke="black" points="289.5,-205.99 293,-215.99 296.5,-205.99 289.5,-205.99"/>
</g>
<!-- AppRoutingModule -->
<g id="node4" class="node">
<title>AppRoutingModule</title>
<polygon fill="#8dd3c7" stroke="black" points="277.27,-122 274.27,-126 253.27,-126 250.27,-122 148.73,-122 148.73,-86 277.27,-86 277.27,-122"/>
<text text-anchor="middle" x="213" y="-99.8" font-family="Times,serif" font-size="14.00">AppRoutingModule</text>
</g>
<!-- AppRoutingModule&#45;&gt;AppModule -->
<g id="edge3" class="edge">
<title>AppRoutingModule&#45;&gt;AppModule</title>
<path fill="none" stroke="black" d="M264.28,-122.11C264.28,-122.11 264.28,-140.99 264.28,-140.99"/>
<polygon fill="black" stroke="black" points="260.78,-140.99 264.28,-150.99 267.78,-140.99 260.78,-140.99"/>
</g>
<!-- ServicesModule -->
<g id="node5" class="node">
<title>ServicesModule</title>
<polygon fill="#8dd3c7" stroke="black" points="130.47,-122 127.47,-126 106.47,-126 103.47,-122 23.53,-122 23.53,-86 130.47,-86 130.47,-122"/>
<text text-anchor="middle" x="77" y="-99.8" font-family="Times,serif" font-size="14.00">ServicesModule</text>
</g>
<!-- ServicesModule&#45;&gt;AppModule -->
<g id="edge4" class="edge">
<title>ServicesModule&#45;&gt;AppModule</title>
<path fill="none" stroke="black" d="M77,-122.11C77,-141.34 77,-169 77,-169 77,-169 241.1,-169 241.1,-169"/>
<polygon fill="black" stroke="black" points="241.1,-172.5 251.1,-169 241.1,-165.5 241.1,-172.5"/>
</g>
</g>
</svg>
