<?xml version="1.0" encoding="UTF-8" standalone="no"?>
<!DOCTYPE svg PUBLIC "-//W3C//DTD SVG 1.1//EN"
 "http://www.w3.org/Graphics/SVG/1.1/DTD/svg11.dtd">
<!-- Generated by graphviz version 2.47.0 (20210316.0004)
 -->
<!-- Title: dependencies Pages: 1 -->
<svg width="1198pt" height="360pt"
 viewBox="0.00 0.00 1198.00 360.00" xmlns="http://www.w3.org/2000/svg" xmlns:xlink="http://www.w3.org/1999/xlink">
<g id="graph0" class="graph" transform="scale(1 1) rotate(0) translate(4 356)">
<title>dependencies</title>
<polygon fill="white" stroke="transparent" points="-4,4 -4,-356 1194,-356 1194,4 -4,4"/>
<text text-anchor="start" x="574.01" y="-42.4" font-family="sans-serif" font-weight="bold" font-size="14.00">Legend</text>
<polygon fill="#ffffb3" stroke="transparent" points="361,-10 361,-30 381,-30 381,-10 361,-10"/>
<text text-anchor="start" x="384.63" y="-15.4" font-family="sans-serif" font-size="14.00"> &#160;Declarations</text>
<polygon fill="#8dd3c7" stroke="transparent" points="474,-10 474,-30 494,-30 494,-10 474,-10"/>
<text text-anchor="start" x="497.73" y="-15.4" font-family="sans-serif" font-size="14.00"> &#160;Module</text>
<polygon fill="#80b1d3" stroke="transparent" points="560,-10 560,-30 580,-30 580,-10 560,-10"/>
<text text-anchor="start" x="583.78" y="-15.4" font-family="sans-serif" font-size="14.00"> &#160;Bootstrap</text>
<polygon fill="#fdb462" stroke="transparent" points="657,-10 657,-30 677,-30 677,-10 657,-10"/>
<text text-anchor="start" x="680.67" y="-15.4" font-family="sans-serif" font-size="14.00"> &#160;Providers</text>
<polygon fill="#fb8072" stroke="transparent" points="753,-10 753,-30 773,-30 773,-10 753,-10"/>
<text text-anchor="start" x="776.73" y="-15.4" font-family="sans-serif" font-size="14.00"> &#160;Exports</text>
<g id="clust1" class="cluster">
<title>cluster_AppModule</title>
<polygon fill="none" stroke="black" stroke-dasharray="1,5" points="120,-146 120,-344 697,-344 697,-146 120,-146"/>
</g>
<g id="clust2" class="cluster">
<title>cluster_AppModule_declarations</title>
<polygon fill="none" stroke="black" points="405,-154 405,-206 689,-206 689,-154 405,-154"/>
</g>
<g id="clust5" class="cluster">
<title>cluster_AppModule_imports</title>
<polygon fill="none" stroke="black" points="128,-154 128,-206 397,-206 397,-154 128,-154"/>
</g>
<g id="clust7" class="cluster">
<title>cluster_AppModule_bootstrap</title>
<polygon fill="none" stroke="black" points="343,-284 343,-336 467,-336 467,-284 343,-284"/>
</g>
<g id="clust15" class="cluster">
<title>cluster_HowartsModule</title>
<polygon fill="none" stroke="black" stroke-dasharray="1,5" points="705,-70 705,-206 1182,-206 1182,-70 705,-70"/>
</g>
<g id="clust16" class="cluster">
<title>cluster_HowartsModule_declarations</title>
<polygon fill="none" stroke="black" points="713,-78 713,-130 1174,-130 1174,-78 713,-78"/>
</g>
<g id="clust26" class="cluster">
<title>cluster_ServicesModule</title>
<polygon fill="none" stroke="black" stroke-dasharray="1,5" points="8,-70 8,-138 373,-138 373,-70 8,-70"/>
</g>
<g id="clust31" class="cluster">
<title>cluster_ServicesModule_providers</title>
<polygon fill="none" stroke="black" points="16,-78 16,-130 365,-130 365,-78 16,-78"/>
</g>
<!-- AppComponent -->
<g id="node1" class="node">
<title>AppComponent</title>
<polygon fill="#ffffb3" stroke="black" points="680.94,-198 575.06,-198 575.06,-162 680.94,-162 680.94,-198"/>
<text text-anchor="middle" x="628" y="-175.8" font-family="Times,serif" font-size="14.00">AppComponent</text>
</g>
<!-- AppModule -->
<g id="node3" class="node">
<title>AppModule</title>
<polygon fill="#8dd3c7" stroke="black" points="446.66,-263 443.66,-267 422.66,-267 419.66,-263 363.34,-263 363.34,-227 446.66,-227 446.66,-263"/>
<text text-anchor="middle" x="405" y="-240.8" font-family="Times,serif" font-size="14.00">AppModule</text>
</g>
<!-- AppComponent&#45;&gt;AppModule -->
<g id="edge1" class="edge">
<title>AppComponent&#45;&gt;AppModule</title>
<path fill="none" stroke="black" d="M628,-198.11C628,-217.34 628,-245 628,-245 628,-245 456.68,-245 456.68,-245"/>
<polygon fill="black" stroke="black" points="456.68,-241.5 446.68,-245 456.68,-248.5 456.68,-241.5"/>
</g>
<!-- SidebarnavComponent -->
<g id="node2" class="node">
<title>SidebarnavComponent</title>
<polygon fill="#ffffb3" stroke="black" points="557.31,-198 412.69,-198 412.69,-162 557.31,-162 557.31,-198"/>
<text text-anchor="middle" x="485" y="-175.8" font-family="Times,serif" font-size="14.00">SidebarnavComponent</text>
</g>
<!-- SidebarnavComponent&#45;&gt;AppModule -->
<g id="edge2" class="edge">
<title>SidebarnavComponent&#45;&gt;AppModule</title>
<path fill="none" stroke="black" d="M429.84,-198.11C429.84,-198.11 429.84,-216.99 429.84,-216.99"/>
<polygon fill="black" stroke="black" points="426.34,-216.99 429.84,-226.99 433.34,-216.99 426.34,-216.99"/>
</g>
<!-- AppComponent  -->
<g id="node6" class="node">
<title>AppComponent </title>
<polygon fill="#80b1d3" stroke="black" points="459.44,-328 350.56,-328 350.56,-292 459.44,-292 459.44,-328"/>
<text text-anchor="middle" x="405" y="-305.8" font-family="Times,serif" font-size="14.00">AppComponent </text>
</g>
<!-- AppModule&#45;&gt;AppComponent  -->
<g id="edge5" class="edge">
<title>AppModule&#45;&gt;AppComponent </title>
<path fill="none" stroke="black" stroke-dasharray="1,5" d="M405,-263.11C405,-263.11 405,-281.99 405,-281.99"/>
<polygon fill="black" stroke="black" points="401.5,-281.99 405,-291.99 408.5,-281.99 401.5,-281.99"/>
</g>
<!-- AppRoutingModule -->
<g id="node4" class="node">
<title>AppRoutingModule</title>
<polygon fill="#8dd3c7" stroke="black" points="389.27,-198 386.27,-202 365.27,-202 362.27,-198 260.73,-198 260.73,-162 389.27,-162 389.27,-198"/>
<text text-anchor="middle" x="325" y="-175.8" font-family="Times,serif" font-size="14.00">AppRoutingModule</text>
</g>
<!-- AppRoutingModule&#45;&gt;AppModule -->
<g id="edge3" class="edge">
<title>AppRoutingModule&#45;&gt;AppModule</title>
<path fill="none" stroke="black" d="M376.28,-198.11C376.28,-198.11 376.28,-216.99 376.28,-216.99"/>
<polygon fill="black" stroke="black" points="372.78,-216.99 376.28,-226.99 379.78,-216.99 372.78,-216.99"/>
</g>
<!-- ServicesModule -->
<g id="node5" class="node">
<title>ServicesModule</title>
<polygon fill="#8dd3c7" stroke="black" points="242.47,-198 239.47,-202 218.47,-202 215.47,-198 135.53,-198 135.53,-162 242.47,-162 242.47,-198"/>
<text text-anchor="middle" x="189" y="-175.8" font-family="Times,serif" font-size="14.00">ServicesModule</text>
</g>
<!-- ServicesModule&#45;&gt;AppModule -->
<g id="edge4" class="edge">
<title>ServicesModule&#45;&gt;AppModule</title>
<path fill="none" stroke="black" d="M189,-198.11C189,-217.34 189,-245 189,-245 189,-245 353.1,-245 353.1,-245"/>
<polygon fill="black" stroke="black" points="353.1,-248.5 363.1,-245 353.1,-241.5 353.1,-248.5"/>
</g>
<!-- Docentes -->
<g id="node7" class="node">
<title>Docentes</title>
<polygon fill="#ffffb3" stroke="black" points="1166.09,-122 1097.91,-122 1097.91,-86 1166.09,-86 1166.09,-122"/>
<text text-anchor="middle" x="1132" y="-99.8" font-family="Times,serif" font-size="14.00">Docentes</text>
</g>
<!-- HowartsModule -->
<g id="node12" class="node">
<title>HowartsModule</title>
<polygon fill="#8dd3c7" stroke="black" points="996.47,-198 993.47,-202 972.47,-202 969.47,-198 889.53,-198 889.53,-162 996.47,-162 996.47,-198"/>
<text text-anchor="middle" x="943" y="-175.8" font-family="Times,serif" font-size="14.00">HowartsModule</text>
</g>
<!-- Docentes&#45;&gt;HowartsModule -->
<g id="edge6" class="edge">
<title>Docentes&#45;&gt;HowartsModule</title>
<path fill="none" stroke="black" d="M1132,-122.01C1132,-144.49 1132,-180 1132,-180 1132,-180 1006.65,-180 1006.65,-180"/>
<polygon fill="black" stroke="black" points="1006.65,-176.5 996.65,-180 1006.65,-183.5 1006.65,-176.5"/>
</g>
<!-- Estudiantes -->
<g id="node8" class="node">
<title>Estudiantes</title>
<polygon fill="#ffffb3" stroke="black" points="1080.04,-122 999.96,-122 999.96,-86 1080.04,-86 1080.04,-122"/>
<text text-anchor="middle" x="1040" y="-99.8" font-family="Times,serif" font-size="14.00">Estudiantes</text>
</g>
<!-- Estudiantes&#45;&gt;HowartsModule -->
<g id="edge7" class="edge">
<title>Estudiantes&#45;&gt;HowartsModule</title>
<path fill="none" stroke="black" d="M999.74,-104C993.41,-104 988.91,-104 988.91,-104 988.91,-104 988.91,-151.99 988.91,-151.99"/>
<polygon fill="black" stroke="black" points="985.41,-151.99 988.91,-161.99 992.41,-151.99 985.41,-151.99"/>
</g>
<!-- ModalAdd -->
<g id="node9" class="node">
<title>ModalAdd</title>
<polygon fill="#ffffb3" stroke="black" points="981.16,-122 904.84,-122 904.84,-86 981.16,-86 981.16,-122"/>
<text text-anchor="middle" x="943" y="-99.8" font-family="Times,serif" font-size="14.00">ModalAdd</text>
</g>
<!-- ModalAdd&#45;&gt;HowartsModule -->
<g id="edge8" class="edge">
<title>ModalAdd&#45;&gt;HowartsModule</title>
<path fill="none" stroke="black" d="M943,-122.01C943,-122.01 943,-151.85 943,-151.85"/>
<polygon fill="black" stroke="black" points="939.5,-151.85 943,-161.85 946.5,-151.85 939.5,-151.85"/>
</g>
<!-- Personajes -->
<g id="node10" class="node">
<title>Personajes</title>
<polygon fill="#ffffb3" stroke="black" points="886.87,-122 811.13,-122 811.13,-86 886.87,-86 886.87,-122"/>
<text text-anchor="middle" x="849" y="-99.8" font-family="Times,serif" font-size="14.00">Personajes</text>
</g>
<!-- Personajes&#45;&gt;HowartsModule -->
<g id="edge9" class="edge">
<title>Personajes&#45;&gt;HowartsModule</title>
<path fill="none" stroke="black" d="M886.89,-104C892.85,-104 897.09,-104 897.09,-104 897.09,-104 897.09,-151.99 897.09,-151.99"/>
<polygon fill="black" stroke="black" points="893.59,-151.99 897.09,-161.99 900.59,-151.99 893.59,-151.99"/>
</g>
<!-- TablaInfo -->
<g id="node11" class="node">
<title>TablaInfo</title>
<polygon fill="#ffffb3" stroke="black" points="792.69,-122 721.31,-122 721.31,-86 792.69,-86 792.69,-122"/>
<text text-anchor="middle" x="757" y="-99.8" font-family="Times,serif" font-size="14.00">TablaInfo</text>
</g>
<!-- TablaInfo&#45;&gt;HowartsModule -->
<g id="edge10" class="edge">
<title>TablaInfo&#45;&gt;HowartsModule</title>
<path fill="none" stroke="black" d="M757,-122.01C757,-144.49 757,-180 757,-180 757,-180 879.2,-180 879.2,-180"/>
<polygon fill="black" stroke="black" points="879.2,-183.5 889.2,-180 879.2,-176.5 879.2,-183.5"/>
</g>
<!-- FuncionesService -->
<g id="node13" class="node">
<title>FuncionesService</title>
<ellipse fill="#fdb462" stroke="black" cx="277" cy="-104" rx="79.87" ry="18"/>
<text text-anchor="middle" x="277" y="-99.8" font-family="Times,serif" font-size="14.00">FuncionesService</text>
</g>
<!-- FuncionesService&#45;&gt;ServicesModule -->
<g id="edge11" class="edge">
<title>FuncionesService&#45;&gt;ServicesModule</title>
<path fill="none" stroke="black" d="M219.9,-116.89C219.9,-116.89 219.9,-151.91 219.9,-151.91"/>
<polygon fill="black" stroke="black" points="216.4,-151.91 219.9,-161.91 223.4,-151.91 216.4,-151.91"/>
</g>
<!-- HogwartsService -->
<g id="node14" class="node">
<title>HogwartsService</title>
<ellipse fill="#fdb462" stroke="black" cx="102" cy="-104" rx="77.56" ry="18"/>
<text text-anchor="middle" x="102" y="-99.8" font-family="Times,serif" font-size="14.00">HogwartsService</text>
</g>
<!-- HogwartsService&#45;&gt;ServicesModule -->
<g id="edge12" class="edge">
<title>HogwartsService&#45;&gt;ServicesModule</title>
<path fill="none" stroke="black" d="M157.52,-116.89C157.52,-116.89 157.52,-151.91 157.52,-151.91"/>
<polygon fill="black" stroke="black" points="154.02,-151.91 157.52,-161.91 161.02,-151.91 154.02,-151.91"/>
</g>
</g>
</svg>
